<svg width="2" height="9" viewBox="0 0 2 9" fill="none" xmlns="http://www.w3.org/2000/svg">
<path d="M1.75439 0.877193C1.75439 0.754386 1.75439 0.69386 1.74738 0.642983C1.72505 0.4822 1.65086 0.333097 1.53608 0.218315C1.4213 0.103534 1.27219 0.0293458 1.11141 0.00701745C1.06141 -9.06814e-08 1.00001 0 0.877202 0C0.754395 0 0.693868 -9.06814e-08 0.642991 0.00701745C0.482209 0.0293458 0.333105 0.103534 0.218324 0.218315C0.103543 0.333097 0.0293548 0.4822 0.00702643 0.642983C8.9407e-06 0.692983 8.58307e-06 0.754386 8.58307e-06 0.877193C8.58307e-06 1 8.9407e-06 1.06053 0.00702643 1.1114C0.0293548 1.27219 0.103543 1.42129 0.218324 1.53607C0.333105 1.65085 0.482209 1.72504 0.642991 1.74737C0.692991 1.75439 0.754395 1.75439 0.877202 1.75439C1.00001 1.75439 1.06054 1.75439 1.11141 1.74737C1.27219 1.72504 1.4213 1.65085 1.53608 1.53607C1.65086 1.42129 1.72505 1.27219 1.74738 1.1114C1.75439 1.0614 1.75439 1 1.75439 0.877193ZM1.75439 4.38597C1.75439 4.26316 1.75439 4.20263 1.74738 4.15175C1.72505 3.99097 1.65086 3.84187 1.53608 3.72709C1.4213 3.61231 1.27219 3.53812 1.11141 3.51579C1.06141 3.50877 1.00001 3.50877 0.877202 3.50877C0.754395 3.50877 0.693868 3.50877 0.642991 3.51579C0.482209 3.53812 0.333105 3.61231 0.218324 3.72709C0.103543 3.84187 0.0293548 3.99097 0.00702643 4.15175C8.9407e-06 4.20175 8.58307e-06 4.26316 8.58307e-06 4.38597C8.58307e-06 4.50877 8.9407e-06 4.5693 0.00702643 4.62018C0.0293548 4.78096 0.103543 4.93006 0.218324 5.04484C0.333105 5.15962 0.482209 5.23381 0.642991 5.25614C0.692991 5.26316 0.754395 5.26316 0.877202 5.26316C1.00001 5.26316 1.06054 5.26316 1.11141 5.25614C1.27219 5.23381 1.4213 5.15962 1.53608 5.04484C1.65086 4.93006 1.72505 4.78096 1.74738 4.62018C1.75439 4.57018 1.75439 4.50877 1.75439 4.38597ZM1.75439 7.89474C1.75439 7.77281 1.75439 7.7114 1.74738 7.66053C1.72492 7.50003 1.65078 7.35122 1.53619 7.23663C1.42159 7.12204 1.27278 7.0479 1.11229 7.02544C1.06054 7.01842 1.00001 7.01842 0.878079 7.01842C0.756149 7.01842 0.693868 7.01842 0.643868 7.02544C0.483373 7.0479 0.334564 7.12204 0.219971 7.23663C0.105378 7.35122 0.0312399 7.50003 0.00878072 7.66053C0.00176322 7.7114 0.00176287 7.77281 0.00176287 7.89474C0.00176287 8.01667 0.00176322 8.07807 0.00878072 8.12895C0.0312399 8.28944 0.105378 8.43825 0.219971 8.55285C0.334564 8.66744 0.483373 8.74158 0.643868 8.76404C0.694746 8.77105 0.756149 8.77105 0.878079 8.77105C1.00001 8.77105 1.06141 8.77105 1.11229 8.76404C1.27278 8.74158 1.42159 8.66744 1.53619 8.55285C1.65078 8.43825 1.72492 8.28944 1.74738 8.12895C1.75439 8.07807 1.75439 8.01667 1.75439 7.89474Z" fill="black"/>
</svg>
