<svg width="17" height="17" viewBox="0 0 17 17" fill="none" xmlns="http://www.w3.org/2000/svg">
<path d="M8.42086 1.4035C7.95309 1.4035 7.49534 1.44937 7.05207 1.53706C6.67187 1.61228 6.42463 1.98146 6.49985 2.36166C6.57506 2.74186 6.94425 2.9891 7.32445 2.91389C7.67849 2.84384 8.04503 2.80701 8.42086 2.80701C8.7967 2.80701 9.16323 2.84384 9.51728 2.91389C9.89748 2.9891 10.2667 2.74186 10.3419 2.36166C10.4171 1.98146 10.1699 1.61228 9.78966 1.53706C9.34639 1.44937 8.88864 1.4035 8.42086 1.4035Z" fill="black"/>
<path d="M12.3204 2.58592C11.9984 2.37031 11.5625 2.4566 11.3469 2.77866C11.1313 3.10071 11.2176 3.53658 11.5396 3.75219C12.1521 4.16226 12.6796 4.68977 13.0897 5.3023C13.3053 5.62435 13.7412 5.71064 14.0633 5.49503C14.3853 5.27942 14.4716 4.84355 14.256 4.5215C13.7439 3.75653 13.0854 3.09805 12.3204 2.58592Z" fill="black"/>
<path d="M5.30211 3.75219C5.62417 3.53658 5.71046 3.10071 5.49485 2.77866C5.27924 2.4566 4.84337 2.37031 4.52131 2.58592C3.75634 3.09805 3.09787 3.75653 2.58574 4.5215C2.37012 4.84355 2.45642 5.27942 2.77847 5.49503C3.10053 5.71064 3.5364 5.62435 3.75201 5.3023C4.16208 4.68977 4.68959 4.16226 5.30211 3.75219Z" fill="black"/>
<path d="M2.9137 7.32463C2.98892 6.94443 2.74168 6.57525 2.36148 6.50003C1.98128 6.42482 1.61209 6.67206 1.53688 7.05226C1.44919 7.49552 1.40332 7.95328 1.40332 8.42105C1.40332 8.88882 1.44919 9.34657 1.53688 9.78984C1.61209 10.17 1.98128 10.4173 2.36148 10.3421C2.74168 10.2668 2.98892 9.89766 2.9137 9.51746C2.84366 9.16342 2.80683 8.79688 2.80683 8.42105C2.80683 8.04521 2.84366 7.67868 2.9137 7.32463Z" fill="black"/>
<path d="M15.3049 7.05226C15.2296 6.67206 14.8604 6.42482 14.4802 6.50003C14.1 6.57525 13.8528 6.94443 13.928 7.32463C13.9981 7.67868 14.0349 8.04521 14.0349 8.42105C14.0349 8.79688 13.9981 9.16342 13.928 9.51746C13.8528 9.89766 14.1 10.2668 14.4802 10.3421C14.8604 10.4173 15.2296 10.17 15.3049 9.78984C15.3925 9.34657 15.4384 8.88882 15.4384 8.42105C15.4384 7.95328 15.3925 7.49552 15.3049 7.05226Z" fill="black"/>
<path d="M14.256 12.3206C14.4716 11.9985 14.3853 11.5627 14.0633 11.3471C13.7412 11.1315 13.3053 11.2177 13.0897 11.5398C13.0321 11.6258 12.9722 11.7102 12.91 11.7928C12.8244 11.6899 12.7159 11.6056 12.5846 11.54C11.94 11.1657 11.2591 10.8902 10.5417 10.7134C9.82437 10.5367 9.09143 10.4483 8.34289 10.4483C7.59435 10.4483 6.86141 10.5367 6.14406 10.7134C5.42671 10.8902 4.74575 11.1657 4.10118 11.54C4.01537 11.5876 3.9383 11.644 3.86998 11.7092C3.82965 11.6535 3.79032 11.597 3.75201 11.5398C3.5364 11.2177 3.10053 11.1315 2.77847 11.3471C2.45642 11.5627 2.37012 11.9985 2.58574 12.3206C3.09787 13.0856 3.75634 13.744 4.52131 14.2562C4.64126 14.3365 4.777 14.3749 4.91126 14.3749C5.21246 14.5793 5.52982 14.7572 5.86336 14.9084C6.22424 15.072 6.59515 15.1977 6.97607 15.2856C7.00074 15.2934 7.0261 15.2999 7.05207 15.305C7.10048 15.3146 7.14906 15.3237 7.1978 15.3323C7.57011 15.4031 7.95181 15.4386 8.34289 15.4386C8.35557 15.4386 8.36823 15.4386 8.38089 15.4385C8.39421 15.4386 8.40753 15.4386 8.42086 15.4386C8.88864 15.4386 9.34639 15.3927 9.78966 15.305C9.88556 15.2861 9.973 15.2484 10.0489 15.1965C10.3117 15.1191 10.5695 15.023 10.8224 14.9084C11.1632 14.7539 11.4871 14.5716 11.7941 14.3615C11.9702 14.3963 12.1595 14.3639 12.3204 14.2562C13.0854 13.744 13.7439 13.0856 14.256 12.3206Z" fill="black"/>
<path d="M10.1051 8.46783C9.61644 8.95646 9.02905 9.20077 8.34289 9.20077C7.65673 9.20077 7.06934 8.95646 6.58071 8.46783C6.09208 7.9792 5.84776 7.39181 5.84776 6.70565C5.84776 6.01949 6.09208 5.43209 6.58071 4.94346C7.06934 4.45484 7.65673 4.21052 8.34289 4.21052C9.02905 4.21052 9.61644 4.45484 10.1051 4.94346C10.5937 5.43209 10.838 6.01949 10.838 6.70565C10.838 7.39181 10.5937 7.9792 10.1051 8.46783Z" fill="black"/>
</svg>
