<svg width="15" height="15" viewBox="0 0 15 15" fill="none" xmlns="http://www.w3.org/2000/svg">
<g clip-path="url(#clip0_5_636)">
<path fill-rule="evenodd" clip-rule="evenodd" d="M1.16943 2.92399C1.16943 1.95507 1.9549 1.16961 2.92382 1.16961H7.60218C7.92516 1.16961 8.18698 1.43143 8.18698 1.7544C8.18698 2.07738 7.92516 2.3392 7.60218 2.3392H2.92382C2.60085 2.3392 2.33902 2.60102 2.33902 2.92399V11.1111C2.33902 11.4341 2.60085 11.6959 2.92382 11.6959H11.111C11.4339 11.6959 11.6958 11.4341 11.6958 11.1111V6.43276C11.6958 6.10979 11.9576 5.84797 12.2805 5.84797C12.6035 5.84797 12.8653 6.10979 12.8653 6.43276V11.1111C12.8653 12.08 12.0799 12.8655 11.111 12.8655H2.92382C1.9549 12.8655 1.16943 12.08 1.16943 11.1111V2.92399Z" fill="black"/>
<path fill-rule="evenodd" clip-rule="evenodd" d="M11.3299 2.28695C11.2157 2.17276 11.0306 2.17276 10.9164 2.28695L10.5029 2.70046L11.3299 3.52749L11.7434 3.11398C11.8576 2.99979 11.8576 2.81465 11.7434 2.70046L11.3299 2.28695ZM10.5029 4.35452L9.67583 3.52749L4.67821 8.52512V9.35214H5.50523L10.5029 4.35452ZM10.5029 1.04641C10.8454 0.703848 11.4008 0.703848 11.7434 1.04641L12.9839 2.28695C13.3265 2.62952 13.3265 3.18493 12.9839 3.52749L6.16097 10.3505C6.0513 10.4601 5.90256 10.5217 5.74746 10.5217H4.09341C3.77044 10.5217 3.50862 10.2599 3.50862 9.93694V8.28289C3.50862 8.12779 3.57023 7.97904 3.6799 7.86937L10.5029 1.04641Z" fill="black"/>
</g>
<defs>
<clipPath id="clip0_5_636">
<rect width="14.0351" height="14.0351" fill="white"/>
</clipPath>
</defs>
</svg>
