<svg width="15" height="15" viewBox="0 0 15 15" fill="none" xmlns="http://www.w3.org/2000/svg">
<path fill-rule="evenodd" clip-rule="evenodd" d="M3.50878 1.75439C2.53986 1.75439 1.75439 2.53986 1.75439 3.50878V10.5263C1.75439 11.4952 2.53986 12.2807 3.50878 12.2807H10.5263C11.4952 12.2807 12.2807 11.4952 12.2807 10.5263V3.50878C12.2807 2.53986 11.4952 1.75439 10.5263 1.75439H3.50878ZM4.97077 2.92399H3.50878C3.18581 2.92399 2.92399 3.18581 2.92399 3.50878V10.5263C2.92399 10.8493 3.18581 11.1111 3.50878 11.1111H4.97077V2.92399ZM6.14036 11.1111H10.5263C10.8493 11.1111 11.1111 10.8493 11.1111 10.5263V3.50878C11.1111 3.18581 10.8493 2.92399 10.5263 2.92399H6.14036V11.1111Z" fill="black"/>
</svg>
