<svg width="15" height="15" viewBox="0 0 15 15" fill="none" xmlns="http://www.w3.org/2000/svg">
<path d="M9.06421 8.18713H8.60223L8.43848 8.02923C9.14024 7.21052 9.50281 6.09356 9.30398 4.90643C9.02913 3.28069 7.6724 1.98245 6.03497 1.78362C3.56129 1.47953 1.47942 3.5614 1.78351 6.03508C1.98234 7.67251 3.28059 9.02923 4.90632 9.30409C6.09345 9.50292 7.21041 9.14034 8.02913 8.43859L8.18702 8.60233V9.06432L10.6724 11.5497C10.9122 11.7895 11.304 11.7895 11.5437 11.5497C11.7835 11.3099 11.7835 10.9181 11.5437 10.6784L9.06421 8.18713ZM5.55544 8.18713C4.0993 8.18713 2.92386 7.01169 2.92386 5.55555C2.92386 4.09941 4.0993 2.92397 5.55544 2.92397C7.01158 2.92397 8.18702 4.09941 8.18702 5.55555C8.18702 7.01169 7.01158 8.18713 5.55544 8.18713Z" fill="black"/>
</svg>
