<svg width="23" height="23" viewBox="0 0 23 23" fill="none" xmlns="http://www.w3.org/2000/svg">
<path fill-rule="evenodd" clip-rule="evenodd" d="M14.7368 5.96492C15.7057 5.96492 16.4912 6.75039 16.4912 7.71931V14.7368C16.4912 15.7058 15.7057 16.4912 14.7368 16.4912H7.71923C6.75031 16.4912 5.96484 15.7058 5.96484 14.7368V7.71931C5.96484 6.75039 6.75031 5.96492 7.71923 5.96492H14.7368ZM13.2748 7.13451H14.7368C15.0597 7.13451 15.3216 7.39633 15.3216 7.71931V14.7368C15.3216 15.0598 15.0597 15.3216 14.7368 15.3216H13.2748V7.13451ZM12.1052 15.3216H7.71923C7.39626 15.3216 7.13443 15.0598 7.13443 14.7368V7.71931C7.13443 7.39633 7.39626 7.13451 7.71923 7.13451H12.1052V15.3216Z" fill="black"/>
</svg>
